<svg xmlns="http://www.w3.org/2000/svg" viewBox="830.8 47.8 698.6 697.2"><path d="M1292.8 77.7c131.3 46.4 225.3 171.6 225.3 318.8 0 93.3-37.8 177.8-99 239-35.3 35.3-78.3 62.8-126.3 79.8V77.7z" fill="#ce2b37"/><path d="M1292.8 77.7v637.5c-35.2 12.5-73.2 19.2-112.7 19.2s-77.4-6.8-112.7-19.2V77.7c35.2-12.5 73.2-19.2 112.7-19.2 39.5-.1 77.5 6.7 112.7 19.2z" fill="#fff"/><path d="M1067.5 77.7v637.5c-48-17-91.1-44.5-126.3-79.8-61.2-61.2-99-145.7-99-239s37.8-177.8 99-239c35.2-35.2 78.2-62.7 126.3-79.7z" fill="#009246"/></svg>